<?xml version="1.0" standalone="no"?>
<!DOCTYPE svg PUBLIC "-//W3C//DTD SVG 1.1//EN" "http://www.w3.org/Graphics/SVG/1.1/DTD/svg11.dtd">
<svg class="icon" width="48px" height="48.00px" viewBox="0 0 1024 1024" version="1.1"
    xmlns="http://www.w3.org/2000/svg">
    <path fill="#d81e06" d="M512 1024a512 512 0 1 1 512-512 512 512 0 0 1-512 512z m0-992A480 480 0 1 0 992 512 480 480 0 0 0 512 32z m128 640a80 80 0 1 1 48-143.634286V416l-224 64v192h-1.609143a80.548571 80.548571 0 1 1-30.390857-79.634286V384a32 32 0 0 1 32-32l224-64a32 32 0 0 1 32 32v288h-1.609143A80.018286 80.018286 0 0 1 640 672z m-256-64a48 48 0 1 0 48 48A48 48 0 0 0 384 608zM688 320L464 384v64l224-64v-64zM640 544a48 48 0 1 0 48 48A48 48 0 0 0 640 544z" />
</svg>