<?xml version="1.0" standalone="no"?><!DOCTYPE svg PUBLIC "-//W3C//DTD SVG 1.1//EN" "http://www.w3.org/Graphics/SVG/1.1/DTD/svg11.dtd"><svg class="icon" width="48px" height="48.00px" viewBox="0 0 1024 1024" version="1.1" xmlns="http://www.w3.org/2000/svg"><path fill="#d81e06" d="M981.6382 396.910222C981.137507 396.270448 980.581182 395.714123 980.024856 395.129981L638.747156 62.002445C605.172929 22.225192 560.249668 0.361611 512.099721 0.361611 512.044089 0.361611 512.016273 0.361611 511.96064 0.361611 463.699428 0.389428 418.692718 22.364273 385.118492 62.308424L43.729526 394.824002C43.145385 395.408144 42.589059 395.992285 42.06055 396.604243-5.505255 453.822291 2.672725 495.045989 11.768643 514.545188 20.892376 534.044386 47.317824 566.756309 121.698504 566.756309L160.168393 566.756309 160.168393 1000.71779C160.168393 1013.568902 170.543858 1023.972184 183.367154 1023.972184L838.050663 1023.972184C850.873959 1023.972184 861.249424 1013.568902 861.249424 1000.71779L861.249424 570.567137C861.249424 557.74384 850.873959 547.340559 838.050663 547.340559 825.227366 547.340559 814.851901 557.74384 814.851901 570.567137L814.851901 977.491212 679.247631 977.491212C679.386712 976.378562 679.887405 975.404993 679.887405 974.264526L679.887405 756.88045C679.887405 666.811398 626.341103 603.918833 549.651673 603.918833L473.907996 603.918833C402.114227 603.918833 343.727896 662.388613 343.727896 734.238014L343.727896 974.264526C343.727896 975.404993 344.200773 976.378562 344.36767 977.491212L206.565915 977.491212 206.565915 543.529731C206.565915 530.678619 196.19045 520.275338 183.367154 520.275338L121.698504 520.275338C86.650016 520.275338 61.25377 510.762176 53.799012 494.823459 46.45552 479.079456 55.106377 453.877924 76.969957 427.257762L418.303291 94.797816C418.887432 94.213675 419.443757 93.629533 419.94445 92.989759 444.673106 63.254177 477.357212 46.842583 512.016273 46.814767 512.016273 46.814767 512.044089 46.814767 512.099721 46.814767 546.619701 46.814767 579.248174 63.115095 603.921197 92.739413 604.42189 93.323554 604.978215 93.935512 605.534541 94.491837L946.728793 427.563741C968.62019 454.183902 977.326679 479.329802 970.011003 494.96254 962.584061 510.817809 937.243448 520.275338 902.167143 520.275338 889.343847 520.275338 878.968382 530.678619 878.968382 543.529731 878.968382 556.353027 889.343847 566.756309 902.167143 566.756309 976.57564 566.756309 1002.917639 534.127835 1012.041372 514.684269 1021.109473 495.240703 1029.259638 454.100454 981.6382 396.910222ZM390.125419 974.264526 390.125419 734.238014C390.125419 688.007389 427.705187 650.399804 473.907996 650.399804L549.651673 650.399804C599.804391 650.399804 633.489882 693.181213 633.489882 756.88045L633.489882 974.264526C633.489882 975.404993 633.990575 976.378562 634.157473 977.491212L389.457828 977.491212C389.624726 976.378562 390.125419 975.404993 390.125419 974.264526Z" /></svg>