<?xml version="1.0" standalone="no"?><!DOCTYPE svg PUBLIC "-//W3C//DTD SVG 1.1//EN" "http://www.w3.org/Graphics/SVG/1.1/DTD/svg11.dtd"><svg class="icon" width="48px" height="48.00px" viewBox="0 0 1024 1024" version="1.1" xmlns="http://www.w3.org/2000/svg"><path fill="#d81e06" d="M239.786667 393.813333c97.393778 0 176.611556-79.203556 176.611555-176.583111S337.180444 40.632889 239.786667 40.632889c-97.365333 0-176.583111 79.217778-176.583111 176.597333 0 97.379556 79.203556 176.583111 176.583111 176.583111z m0-296.291555c66.019556 0 119.722667 53.703111 119.722666 119.708444s-53.703111 119.694222-119.722666 119.694222c-66.005333 0-119.694222-53.688889-119.694223-119.694222 0-66.019556 53.688889-119.708444 119.694223-119.708444z"  /><path fill="#d81e06" d="M175.715556 217.244444l-0.071112-3.797333c-0.056889-1.621333-0.056889-1.621333 0.298667-3.484444a14.250667 14.250667 0 0 0-11.292444-16.654223 14.307556 14.307556 0 0 0-16.654223 11.292445 36.977778 36.977778 0 0 0-0.796444 9.784889l0.056889 2.844444a14.236444 14.236444 0 0 0 28.458667 0.014222zM174.691556 187.889778a14.193778 14.193778 0 0 0 11.832888-6.314667 64.014222 64.014222 0 0 1 53.262223-28.444444 14.222222 14.222222 0 1 0 0-28.444445 92.430222 92.430222 0 0 0-76.899556 41.059556 14.236444 14.236444 0 0 0 11.804445 22.144zM637.994667 393.813333c97.408 0 176.611556-79.203556 176.611555-176.583111S735.402667 40.632889 637.994667 40.632889c-97.365333 0-176.583111 79.217778-176.583111 176.597333 0.014222 97.379556 79.232 176.583111 176.583111 176.583111z m0-296.291555c66.033778 0 119.722667 53.703111 119.722666 119.708444s-53.688889 119.694222-119.722666 119.694222c-66.005333 0-119.694222-53.688889-119.694223-119.694222 0.014222-66.019556 53.703111-119.708444 119.694223-119.708444z"  /><path fill="#d81e06" d="M572.913778 187.889778a14.193778 14.193778 0 0 0 11.832889-6.314667 64 64 0 0 1 53.248-28.444444c7.879111 0 14.222222-6.357333 14.222222-14.222223 0-7.864889-6.343111-14.222222-14.222222-14.222222a92.401778 92.401778 0 0 0-76.885334 41.059556 14.222222 14.222222 0 0 0 11.804445 22.144zM979.256889 456.846222c-9.315556-9.528889-20.935111-14.634667-35.086222-14.634666-11.505778 0-23.907556 3.086222-38.968889 10.368a18042.595556 18042.595556 0 0 1-150.499556 79.317333l0.696889-10.666667c0.056889-0.696889 0.085333-2.787556 0.085333-3.498666 0-55.338667-44.231111-103.253333-98.588444-103.253334H128.711111c-53.447111 0-100.280889 52.565333-100.280889 107.932445V894.151111c0 53.262222 44.999111 89.201778 100.280889 89.201778h528.184889c54.840889 0 97.834667-39.068444 98.531556-92.714667-0.014222 0.056889-0.014222 0.128-0.028445 0.028445l-1.479111-23.665778c37.788444 18.944 96.497778 49.379556 150.940444 78.051555 1.550222 0.824889 2.972444 1.536 4.664889 2.076445 14.805333 4.551111 26.595556 7.68 37.959111 7.751111 20.266667-0.156444 32.568889-10.069333 38.542223-18.332444 7.082667-9.770667 9.528889-22.414222 9.528889-39.523556V512.853333c0-11.335111 1.450667-38.001778-16.298667-56.007111z m-38.897778 439.566222c-3.968-0.938667-8.206222-2.261333-11.164444-3.171555-191.317333-100.721778-197.973333-100.892444-206.421334-100.892445-7.836444 0-15.331556 2.872889-20.721777 8.590223-5.361778 5.688889-8.135111 12.643556-7.665778 20.465777l4.195555 68.778667c-0.412444 22.030222-18.588444 36.280889-41.699555 36.280889H128.711111c-24.149333 0-43.392-10.24-43.392-32.312889V522.410667c0-24.092444 21.176889-51.043556 43.392-51.043556v-0.014222h528.184889c22.314667 0 41.201778 22.300444 41.685333 45.468444l-4.167111 61.425778c-0.554667 7.864889 2.176 15.644444 7.537778 21.418667 5.390222 5.774222 12.942222 9.059556 20.835556 9.059555 9.272889 0 11.747556-0.028444 208.170666-105.088 3.882667-1.877333 6.826667-2.958222 8.96-3.584 0.341333 2.545778 0.568889 6.286222 0.483556 11.875556l-0.042667 384.483555z"  /><path fill="#d81e06" d="M755.413333 890.652444l0.042667-0.867555c0 0.298667-0.042667 0.583111-0.042667 0.867555zM947.911111 954.922667l-0.426667-0.028445-0.440888 0.028445h0.867555zM755.456 889.784889l0.014222-0.327111-0.014222 0.327111zM286.122667 499.797333h-120.803556c-28.544 0-51.555556 35.2-51.555555 61.511111v72.277334a14.222222 14.222222 0 1 0 28.444444-0.014222v-72.277334c0-13.240889 12.714667-33.038222 23.111111-33.038222h120.803556a14.222222 14.222222 0 1 0 0-28.458667zM357.233778 499.811556h-14.222222a14.222222 14.222222 0 1 0 0 28.444444h14.222222a14.222222 14.222222 0 1 0 0-28.444444z"  /></svg>