<?xml version="1.0" standalone="no"?><!DOCTYPE svg PUBLIC "-//W3C//DTD SVG 1.1//EN" "http://www.w3.org/Graphics/SVG/1.1/DTD/svg11.dtd"><svg class="icon" width="25px" height="25.00px" viewBox="0 0 1024 1024" version="1.1" xmlns="http://www.w3.org/2000/svg"><path fill="#c9c8c9" d="M512 0c282.7776 0 512 229.2224 512 512s-229.2224 512-512 512S0 794.7776 0 512 229.2224 0 512 0z m0 76.8C271.6416 76.8 76.8 271.6416 76.8 512s194.8416 435.2 435.2 435.2 435.2-194.8416 435.2-435.2S752.3584 76.8 512 76.8z"  /><path fill="#c9c8c9" d="M542.464 638.208v-13.056c0-18.432 3.84-35.328 12.288-50.688 6.912-13.824 17.664-27.648 32.256-39.936 36.096-31.488 57.6-51.456 64.512-59.904 19.2-24.576 29.184-56.064 29.184-93.696 0-46.08-15.36-82.944-46.08-109.824C603.904 243.456 563.968 230.4 514.816 230.4c-56.832 0-101.376 16.128-133.632 49.152-32.256 32.256-48.384 76.032-48.384 132.096h80.64c0-33.792 6.912-59.904 20.736-78.336 15.36-22.272 40.704-33.024 75.264-33.024 27.648 0 49.92 7.68 65.28 23.04 14.592 15.36 22.272 36.096 22.272 62.976 0 19.968-7.68 38.4-21.504 56.064l-13.056 14.592c-47.616 42.24-76.8 73.728-86.784 95.232-10.752 19.968-15.36 44.544-15.36 72.96v13.056h82.176z m-41.472 151.296c15.36 0 29.184-5.376 39.936-15.36 10.752-10.752 16.896-23.808 16.896-39.936s-5.376-29.184-16.128-39.168c-10.752-10.752-24.576-15.36-40.704-15.36-15.36 0-29.184 4.608-39.936 15.36-10.752 9.984-16.128 23.04-16.128 39.168 0 15.36 5.376 28.416 16.128 39.168 10.752 10.752 24.576 16.128 39.936 16.128z"  /></svg>