<?xml version="1.0" standalone="no"?><!DOCTYPE svg PUBLIC "-//W3C//DTD SVG 1.1//EN" "http://www.w3.org/Graphics/SVG/1.1/DTD/svg11.dtd"><svg class="icon" width="25px" height="25.00px" viewBox="0 0 1024 1024" version="1.1" xmlns="http://www.w3.org/2000/svg"><path fill="#c9c8c9" d="M0 921.6m38.4 0l947.2 0q38.4 0 38.4 38.4l0 0q0 38.4-38.4 38.4l-947.2 0q-38.4 0-38.4-38.4l0 0q0-38.4 38.4-38.4Z"  /><path fill="#c9c8c9" d="M797.696 44.0576a102.4 102.4 0 0 1 0 144.8192l-538.8288 538.88-185.4464 40.1664 40.6272-184.9856 538.88-538.88a102.4 102.4 0 0 1 144.7936 0z m-54.272 54.3232a25.6 25.6 0 0 0-33.9712-1.9968l-2.2528 1.9968L184.2432 621.312 174.08 667.52l46.4128-10.0608L743.424 134.5792a25.6 25.6 0 0 0 1.9712-33.9712l-1.9712-2.2272z"  /></svg>