<?xml version="1.0" standalone="no"?><!DOCTYPE svg PUBLIC "-//W3C//DTD SVG 1.1//EN" "http://www.w3.org/Graphics/SVG/1.1/DTD/svg11.dtd"><svg class="icon" width="25px" height="25.00px" viewBox="0 0 1024 1024" version="1.1" xmlns="http://www.w3.org/2000/svg"><path fill="#c9c8c9" d="M819.2 0v204.8h102.4a102.4 102.4 0 0 1 102.4 102.4v307.2a102.4 102.4 0 0 1-102.4 102.4h-102.4v307.2H204.8V716.8H102.4a102.4 102.4 0 0 1-102.4-102.4V307.2a102.4 102.4 0 0 1 102.4-102.4h102.4V0h614.4z m-76.8 486.4H281.6v460.8h460.8V486.4z m-115.2 230.4a38.4 38.4 0 0 1 0 76.8h-230.4a38.4 38.4 0 0 1 0-76.8h230.4z m0-128a38.4 38.4 0 0 1 0 76.8h-230.4a38.4 38.4 0 0 1 0-76.8h230.4zM921.6 281.6H102.4a25.6 25.6 0 0 0-25.4208 22.6048L76.8 307.2v307.2a25.6 25.6 0 0 0 22.6048 25.4208L102.4 640h102.4v-230.4h614.4v230.4h102.4a25.6 25.6 0 0 0 25.4208-22.6048L947.2 614.4V307.2a25.6 25.6 0 0 0-22.6048-25.4208L921.6 281.6z m-179.2-204.8H281.6v128h460.8V76.8z"  /></svg>