<?xml version="1.0" standalone="no"?><!DOCTYPE svg PUBLIC "-//W3C//DTD SVG 1.1//EN" "http://www.w3.org/Graphics/SVG/1.1/DTD/svg11.dtd"><svg class="icon" width="25px" height="25.00px" viewBox="0 0 1024 1024" version="1.1" xmlns="http://www.w3.org/2000/svg"><path fill="#c9c8c9" d="M467.6608 156.5184L143.232 484.736c-93.696 94.7712-93.696 248.4224 0 343.2192a238.0288 238.0288 0 0 0 339.3536 0l421.5552-426.3936c62.5408-63.2576 62.5408-165.8368 0-229.12a158.8736 158.8736 0 0 0-226.5088 0l-407.4496 412.16a82.5344 82.5344 0 0 0 0 115.7632 80.2816 80.2816 0 0 0 114.4576 0l310.3232-313.8816a36.1728 36.1728 0 0 1 50.7904 0.8192c13.9776 14.1312 14.2336 36.864 0.768 51.328h0.0256L436.224 752.5376a152.6528 152.6528 0 0 1-217.6256 0c-60.0832-60.8-60.0832-159.3344 0-220.1344L626.048 120.2688a231.2448 231.2448 0 0 1 329.6768 0c91.0336 92.0576 91.0336 241.3568 0 333.44L534.1696 880.1024a310.4 310.4 0 0 1-442.5216 0c-122.1888-123.5968-122.1888-323.9936 0-447.5904L416.0768 104.3712a36.1728 36.1728 0 0 1 50.7904 0.7936c13.9776 14.1568 14.2336 36.8896 0.768 51.3536z"  /></svg>