<?xml version="1.0" standalone="no"?><!DOCTYPE svg PUBLIC "-//W3C//DTD SVG 1.1//EN" "http://www.w3.org/Graphics/SVG/1.1/DTD/svg11.dtd"><svg class="icon" width="25px" height="25.00px" viewBox="0 0 1024 1024" version="1.1" xmlns="http://www.w3.org/2000/svg"><path fill="#c9c8c9" d="M742.4 179.2a102.4 102.4 0 0 1 102.4 102.4v640a102.4 102.4 0 0 1-102.4 102.4H102.4a102.4 102.4 0 0 1-102.4-102.4V281.6a102.4 102.4 0 0 1 102.4-102.4h640z m0 76.8H102.4a25.6 25.6 0 0 0-25.4208 22.6048L76.8 281.6v640a25.6 25.6 0 0 0 22.6048 25.4208L102.4 947.2h640a25.6 25.6 0 0 0 25.4208-22.6048L768 921.6V281.6a25.6 25.6 0 0 0-22.6048-25.4208L742.4 256z"  /><path fill="#c9c8c9" d="M921.6 0a102.4 102.4 0 0 1 102.4 102.4v614.4a102.4 102.4 0 0 1-102.4 102.4h-76.8v-76.8h76.8a25.6 25.6 0 0 0 25.4208-22.6048L947.2 716.8V102.4a25.6 25.6 0 0 0-22.6048-25.4208L921.6 76.8H307.2a25.6 25.6 0 0 0-25.4208 22.6048L281.6 102.4v76.8H204.8V102.4a102.4 102.4 0 0 1 102.4-102.4h614.4z"  /><path fill="#c9c8c9" d="M704 371.2m0 38.4l0 0q0 38.4-38.4 38.4l-460.8 0q-38.4 0-38.4-38.4l0 0q0-38.4 38.4-38.4l460.8 0q38.4 0 38.4 38.4Z"  /><path fill="#c9c8c9" d="M704 550.4m0 38.4l0 0q0 38.4-38.4 38.4l-460.8 0q-38.4 0-38.4-38.4l0 0q0-38.4 38.4-38.4l460.8 0q38.4 0 38.4 38.4Z"  /><path fill="#c9c8c9" d="M704 729.6m0 38.4l0 0q0 38.4-38.4 38.4l-460.8 0q-38.4 0-38.4-38.4l0 0q0-38.4 38.4-38.4l460.8 0q38.4 0 38.4 38.4Z"  /></svg>