<?xml version="1.0" standalone="no"?><!DOCTYPE svg PUBLIC "-//W3C//DTD SVG 1.1//EN" "http://www.w3.org/Graphics/SVG/1.1/DTD/svg11.dtd"><svg class="icon" width="25px" height="25.00px" viewBox="0 0 1024 1024" version="1.1" xmlns="http://www.w3.org/2000/svg"><path fill="#c9c8c9" d="M921.6 230.4a102.4 102.4 0 0 1 102.4 102.4v512a102.4 102.4 0 0 1-102.4 102.4H102.4a102.4 102.4 0 0 1-102.4-102.4V332.8a102.4 102.4 0 0 1 102.4-102.4h819.2z m0 76.8H102.4a25.6 25.6 0 0 0-25.4208 22.6048L76.8 332.8v512a25.6 25.6 0 0 0 22.6048 25.4208L102.4 870.4h819.2a25.6 25.6 0 0 0 25.4208-22.6048L947.2 844.8V332.8a25.6 25.6 0 0 0-22.6048-25.4208L921.6 307.2z"  /><path fill="#c9c8c9" d="M512 409.6a179.2 179.2 0 1 1 0 358.4 179.2 179.2 0 0 1 0-358.4z m0 76.8a102.4 102.4 0 1 0 0 204.8 102.4 102.4 0 0 0 0-204.8zM532.2496 76.8a102.4 102.4 0 0 1 99.968 80.1792L665.6 307.2H179.2l33.3824-150.2208A102.4 102.4 0 0 1 312.5504 76.8h219.6992z m0 76.8H312.576a25.6 25.6 0 0 0-24.192 17.2032l-0.8192 2.8416L274.944 230.4H569.856l-12.5952-56.7552a25.6 25.6 0 0 0-22.0416-19.8656L532.2496 153.6z"  /><path fill="#c9c8c9" d="M742.4 102.4m38.4 0l102.4 0q38.4 0 38.4 38.4l0 0q0 38.4-38.4 38.4l-102.4 0q-38.4 0-38.4-38.4l0 0q0-38.4 38.4-38.4Z"  /></svg>