<?xml version="1.0" standalone="no"?><!DOCTYPE svg PUBLIC "-//W3C//DTD SVG 1.1//EN" "http://www.w3.org/Graphics/SVG/1.1/DTD/svg11.dtd"><svg class="icon" width="25px" height="24.71px" viewBox="0 0 1036 1024" version="1.1" xmlns="http://www.w3.org/2000/svg"><path fill="#c9c8c9" d="M921.6 76.8c56.576 0 102.4 48.5376 102.4 108.416v704.768C1024 949.8624 978.176 998.4 921.6 998.4H102.4c-56.576 0-102.4-48.5376-102.4-108.416V185.216C0 125.3376 45.824 76.8 102.4 76.8h819.2z m0 76.8H102.4c-13.1328 0-23.9616 10.5984-25.4208 24.2176L76.8 181.0176V894.208c0 14.0544 9.8816 25.6512 22.6048 27.2384L102.4 921.6h819.2c13.1328 0 23.9616-10.5984 25.4208-24.2176l0.1792-3.2V180.992c0-14.0544-9.8816-25.6512-22.6048-27.2384L921.6 153.6z"  /><path fill="#c9c8c9" d="M230.4 0m38.4 0l0 0q38.4 0 38.4 38.4l0 179.2q0 38.4-38.4 38.4l0 0q-38.4 0-38.4-38.4l0-179.2q0-38.4 38.4-38.4Z"  /><path fill="#c9c8c9" d="M716.8 0m38.4 0l0 0q38.4 0 38.4 38.4l0 179.2q0 38.4-38.4 38.4l0 0q-38.4 0-38.4-38.4l0-179.2q0-38.4 38.4-38.4Z"  /><path fill="#c9c8c9" d="M1036.8 345.6m0 38.4l0 0q0 38.4-38.4 38.4l-947.2 0q-38.4 0-38.4-38.4l0 0q0-38.4 38.4-38.4l947.2 0q38.4 0 38.4 38.4Z"  /><path fill="#c9c8c9" d="M422.4 499.2m0 38.4l0 0q0 38.4-38.4 38.4l-179.2 0q-38.4 0-38.4-38.4l0 0q0-38.4 38.4-38.4l179.2 0q38.4 0 38.4 38.4Z"  /><path fill="#c9c8c9" d="M422.4 678.4m0 38.4l0 0q0 38.4-38.4 38.4l-179.2 0q-38.4 0-38.4-38.4l0 0q0-38.4 38.4-38.4l179.2 0q38.4 0 38.4 38.4Z"  /><path fill="#c9c8c9" d="M832 499.2m0 38.4l0 0q0 38.4-38.4 38.4l-179.2 0q-38.4 0-38.4-38.4l0 0q0-38.4 38.4-38.4l179.2 0q38.4 0 38.4 38.4Z"  /><path fill="#c9c8c9" d="M832 678.4m0 38.4l0 0q0 38.4-38.4 38.4l-179.2 0q-38.4 0-38.4-38.4l0 0q0-38.4 38.4-38.4l179.2 0q38.4 0 38.4 38.4Z"  /></svg>