<?xml version="1.0" standalone="no"?><!DOCTYPE svg PUBLIC "-//W3C//DTD SVG 1.1//EN" "http://www.w3.org/Graphics/SVG/1.1/DTD/svg11.dtd"><svg class="icon" width="25px" height="25.00px" viewBox="0 0 1024 1024" version="1.1" xmlns="http://www.w3.org/2000/svg"><path fill="#c9c8c9" d="M51.2 153.6m38.4 0l844.8 0q38.4 0 38.4 38.4l0 0q0 38.4-38.4 38.4l-844.8 0q-38.4 0-38.4-38.4l0 0q0-38.4 38.4-38.4Z"  /><path fill="#c9c8c9" d="M332.8 25.6m38.4 0l281.6 0q38.4 0 38.4 38.4l0 0q0 38.4-38.4 38.4l-281.6 0q-38.4 0-38.4-38.4l0 0q0-38.4 38.4-38.4Z"  /><path fill="#c9c8c9" d="M460.8 345.6m0 38.4l0 384q0 38.4-38.4 38.4l0 0q-38.4 0-38.4-38.4l0-384q0-38.4 38.4-38.4l0 0q38.4 0 38.4 38.4Z"  /><path fill="#c9c8c9" d="M640 345.6m0 38.4l0 384q0 38.4-38.4 38.4l0 0q-38.4 0-38.4-38.4l0-384q0-38.4 38.4-38.4l0 0q38.4 0 38.4 38.4Z"  /><path fill="#c9c8c9" d="M870.4 153.6v768a102.4 102.4 0 0 1-102.4 102.4H256a102.4 102.4 0 0 1-102.4-102.4V153.6h716.8z m-76.8 76.8H230.4v691.2a25.6 25.6 0 0 0 22.6048 25.4208L256 947.2h512a25.6 25.6 0 0 0 25.4208-22.6048L793.6 921.6V230.4z"  /></svg>