<?xml version="1.0" standalone="no"?><!DOCTYPE svg PUBLIC "-//W3C//DTD SVG 1.1//EN" "http://www.w3.org/Graphics/SVG/1.1/DTD/svg11.dtd"><svg class="icon" width="25px" height="25.00px" viewBox="0 0 1024 1024" version="1.1" xmlns="http://www.w3.org/2000/svg"><path fill="#c9c8c9" d="M939.790905 1023.974401H62.193645A36.683883 36.683883 0 0 1 25.61216 987.392915c0-20.095498 16.460388-36.555886 36.581485-36.555886H939.765306c20.095498 0 36.581485 16.460388 36.581485 36.555886 0 20.121097-16.485988 36.581485-36.581485 36.581486z m0-146.274743H62.193645A36.683883 36.683883 0 0 1 25.61216 841.143771v-182.830629a110.026049 110.026049 0 0 1 109.718857-109.693257h234.029349c-7.321417-43.902902-29.260068-85.937052-60.337692-122.518538a255.58401 255.58401 0 0 1-63.9984-170.030949 254.534437 254.534437 0 0 1 78.615635-184.673783c51.19872-49.355566 116.989075-73.137372 188.308892-71.294218 131.657509 5.478263 243.19392 118.832229 244.985876 250.489738 1.843154 65.790355-23.756206 129.788755-67.63351 179.169921-31.077623 32.920777-49.381165 73.137372-56.676983 118.857829h234.02935a110.026049 110.026049 0 0 1 109.718857 109.693257v182.830629c0 20.121097-16.485988 36.555886-36.581486 36.555887zM98.749531 804.587885h804.459889v-146.249143c0-20.121097-16.460388-36.581485-36.555886-36.581486H592.40759a36.683883 36.683883 0 0 1-36.581486-36.555886c0-76.79808 27.442514-149.935452 78.615635-204.79488 32.920777-34.712732 49.381165-80.433189 49.381165-127.9968-1.843154-95.050424-80.458789-175.509212-175.534811-179.169921-51.19872-1.817555-98.736732 16.460388-133.475063 51.19872a181.269068 181.269068 0 0 0-56.676983 131.657509c0 43.877303 16.460388 87.754606 45.694857 120.675383 53.041874 60.337692 82.276343 133.475063 82.276343 208.429989 0 20.121097-16.434789 36.555886-36.555886 36.555886H135.305417c-20.121097 0-36.555886 16.460388-36.555886 36.581486v146.249143z"  /></svg>