<?xml version="1.0" standalone="no"?><!DOCTYPE svg PUBLIC "-//W3C//DTD SVG 1.1//EN" "http://www.w3.org/Graphics/SVG/1.1/DTD/svg11.dtd"><svg class="icon" width="25px" height="25.00px" viewBox="0 0 1024 1024" version="1.1" xmlns="http://www.w3.org/2000/svg"><path fill="#c9c8c9" d="M819.2 0a102.4 102.4 0 0 1 102.4 102.4v819.2a102.4 102.4 0 0 1-102.4 102.4H204.8a102.4 102.4 0 0 1-102.4-102.4V102.4a102.4 102.4 0 0 1 102.4-102.4h614.4z m0 76.8H204.8a25.6 25.6 0 0 0-25.4208 22.6048L179.2 102.4v819.2a25.6 25.6 0 0 0 22.6048 25.4208L204.8 947.2h614.4a25.6 25.6 0 0 0 25.4208-22.6048L844.8 921.6V102.4a25.6 25.6 0 0 0-22.6048-25.4208L819.2 76.8z"  /><path fill="#c9c8c9" d="M153.6 716.8h716.8v76.8H153.6z"  /><path fill="#c9c8c9" d="M512 870.4m-51.2 0a51.2 51.2 0 1 0 102.4 0 51.2 51.2 0 1 0-102.4 0Z"  /></svg>